<svg width="16" height="16" viewBox="0 0 16 16" fill="none" xmlns="http://www.w3.org/2000/svg">
<g clip-path="url(#clip0_316_115)">
<path d="M7.29605 0.927292C7.63066 0.587333 8.17934 0.587115 8.51382 0.927292C8.77691 1.19485 9.18386 1.25964 9.51675 1.08647C9.94003 0.866487 10.4619 1.03558 10.675 1.46245C10.8425 1.79822 11.2091 1.98522 11.5793 1.92339C12.0498 1.84483 12.4938 2.16742 12.5646 2.63921C12.6202 3.01031 12.9113 3.30239 13.2824 3.35796C13.7542 3.42864 14.0766 3.87178 13.9982 4.34233C13.9364 4.71244 14.1234 5.08008 14.4591 5.2476C14.8861 5.46069 15.0553 5.98248 14.8351 6.40581C14.6622 6.73863 14.7268 7.14575 14.9943 7.40874C15.3344 7.74334 15.3345 8.29199 14.9943 8.62651C14.7269 8.8896 14.662 9.29662 14.8351 9.62944C15.0552 10.0527 14.8859 10.5736 14.4591 10.7867C14.1234 10.9542 13.9364 11.3218 13.9982 11.6919C14.0768 12.1626 13.7543 12.6066 13.2824 12.6773C12.9113 12.7329 12.6202 13.024 12.5646 13.3951C12.4939 13.867 12.0499 14.1895 11.5793 14.1109C11.2092 14.0491 10.8425 14.2362 10.675 14.5718C10.4619 14.9988 9.94008 15.1679 9.51675 14.9478C9.18392 14.7747 8.77691 14.8395 8.51382 15.107C8.1793 15.4472 7.63065 15.4471 7.29605 15.107C7.03305 14.8395 6.62595 14.7748 6.29312 14.9478C5.86979 15.168 5.348 14.9988 5.13491 14.5718C4.96739 14.2361 4.59975 14.0491 4.22964 14.1109C3.7591 14.1893 3.31596 13.8669 3.24527 13.3951C3.1897 13.024 2.89762 12.7329 2.52652 12.6773C2.05474 12.6065 1.73214 12.1625 1.8107 11.6919C1.87253 11.3218 1.68553 10.9542 1.34976 10.7867C0.923182 10.5735 0.753872 10.0526 0.973782 9.62944C1.14695 9.29655 1.08216 8.8896 0.814602 8.62651C0.474428 8.29204 0.474651 7.74335 0.814602 7.40874C1.08211 7.14571 1.14681 6.73866 0.973782 6.40581C0.753602 5.98256 0.92299 5.46077 1.34976 5.2476C1.68553 5.08008 1.87253 4.71244 1.8107 4.34233C1.73232 3.8719 2.05489 3.42878 2.52652 3.35796C2.89762 3.30239 3.1897 3.01031 3.24527 2.63921C3.31609 2.16757 3.75921 1.84502 4.22964 1.92339C4.59975 1.98522 4.96739 1.79822 5.13491 1.46245C5.34807 1.03567 5.86987 0.866291 6.29312 1.08647C6.62597 1.2595 7.03302 1.1948 7.29605 0.927292Z" fill="#C37857"/>
<path d="M8.00712 5.83848C8.86211 5.8919 9.5173 6.64902 9.46304 7.5211L9.38039 8.84861C9.32608 9.72069 8.58211 10.3905 7.72712 10.3372C6.87203 10.2839 6.21689 9.52665 6.27119 8.65457L6.3538 7.32706C6.40806 6.45503 7.15203 5.78514 8.00712 5.83848Z" fill="white"/>
<path d="M7.9885 10.4393C7.96537 10.4379 7.9429 10.4268 7.92663 10.4062C7.91889 10.3963 7.15803 9.40436 7.81946 7.98376C8.45752 6.61332 7.83049 5.93942 7.80349 5.91141C7.76823 5.8748 7.76682 5.81349 7.80053 5.77443C7.83433 5.73544 7.89018 5.733 7.92563 5.76928C7.95677 5.80099 8.67916 6.56345 7.97759 8.0703C7.3719 9.37129 8.03345 10.2425 8.06191 10.2789C8.09352 10.3194 8.08893 10.3807 8.05163 10.4157C8.03338 10.4329 8.01066 10.4406 7.9885 10.4393Z" fill="#C37857"/>
<path d="M11.9577 8.02919C11.9576 8.0292 11.9575 8.0292 11.9574 8.02921L10.4941 8.10399C10.4628 8.1056 10.4363 8.08451 10.4349 8.05693C10.4335 8.02941 10.4577 8.00579 10.4889 8.00408C10.4889 8.00408 10.4891 8.00408 10.4891 8.00407L11.9524 7.92929C11.9838 7.92762 12.0103 7.94877 12.0116 7.9763C12.013 8.00382 11.9889 8.02749 11.9577 8.02919Z" fill="white"/>
<path d="M11.1836 9.46394C11.1754 9.46439 11.1669 9.46322 11.1587 9.46016L10.2977 9.13909C10.2672 9.1277 10.2523 9.09499 10.2644 9.06595C10.2765 9.03685 10.3111 9.02263 10.3415 9.03386L11.2025 9.35499C11.233 9.36638 11.2479 9.39909 11.2357 9.42813C11.2269 9.44937 11.2061 9.46271 11.1836 9.46394Z" fill="white"/>
<path d="M10.337 7.17929C10.3132 7.18059 10.2901 7.16844 10.2798 7.14698C10.2666 7.11928 10.2801 7.08658 10.3099 7.07402L11.1348 6.72685C11.1644 6.71442 11.1995 6.72651 11.2129 6.75437C11.2261 6.78202 11.2126 6.81472 11.1827 6.82733L10.3579 7.17445C10.3511 7.1773 10.344 7.17891 10.337 7.17929Z" fill="white"/>
<path d="M5.55725 8.30324C5.55719 8.30325 5.55708 8.30325 5.55702 8.30325L4.09361 8.37652C4.06231 8.3781 4.03542 8.35015 4.03356 8.31416C4.03171 8.27824 4.05547 8.24785 4.08672 8.24614C4.08677 8.24614 4.08688 8.24613 4.08694 8.24613L5.55035 8.17286C5.58171 8.17128 5.60855 8.19923 5.6104 8.23522C5.61225 8.27114 5.58849 8.30153 5.55725 8.30324Z" fill="white"/>
<path d="M5.65829 7.60066C5.64999 7.60111 5.64147 7.59964 5.63331 7.59615L4.76942 7.22262C4.73885 7.20943 4.72365 7.17188 4.73558 7.13879C4.74751 7.1057 4.78189 7.08967 4.81245 7.1028L5.67635 7.47633C5.70692 7.48952 5.72205 7.52707 5.71019 7.56015C5.70146 7.58434 5.68076 7.59943 5.65829 7.60066Z" fill="white"/>
<path d="M4.46625 9.70086C4.44424 9.70206 4.42271 9.68982 4.41311 9.66838C4.4007 9.64063 4.41306 9.60799 4.44078 9.59555L5.20553 9.25163C5.23304 9.23925 5.2657 9.2516 5.27817 9.2794C5.29064 9.30715 5.27822 9.33979 5.2505 9.35223L4.48575 9.69615C4.47946 9.69898 4.47283 9.7005 4.46625 9.70086Z" fill="white"/>
<path d="M12.4334 11.3419C13.1231 10.3602 13.4776 9.18206 13.4442 7.98272C13.4108 6.78339 12.9911 5.62687 12.2478 4.68512C11.5044 3.74337 10.4769 3.06667 9.31811 2.75565C8.15932 2.44463 6.9311 2.51588 5.81605 2.95882" stroke="white" stroke-width="0.168087" stroke-linecap="round"/>
<path d="M3.622 11.3993L3.55499 11.4501L3.622 11.3993ZM6.51172 13.3881L6.48829 13.4688L6.48829 13.4688L6.51172 13.3881ZM10.0466 13.3351C10.0901 13.3188 10.1122 13.2704 10.0959 13.2269C10.0797 13.1834 10.0312 13.1614 9.98776 13.1776L10.0466 13.3351ZM3.57206 4.74018L3.50429 4.69048C2.78398 5.67252 2.39983 6.86081 2.40896 8.07867L2.49301 8.07804L2.57705 8.07741C2.56818 6.89574 2.94092 5.74276 3.63983 4.78989L3.57206 4.74018ZM2.49301 8.07804L2.40896 8.07867C2.4181 9.29653 2.82003 10.4789 3.55499 11.4501L3.622 11.3993L3.68902 11.3486C2.97589 10.4063 2.58591 9.25909 2.57705 8.07741L2.49301 8.07804ZM3.622 11.3993L3.55499 11.4501C4.28995 12.4212 5.3187 13.1292 6.48829 13.4688L6.51172 13.3881L6.53516 13.3074C5.40033 12.9779 4.40214 12.2909 3.68902 11.3486L3.622 11.3993ZM6.51172 13.3881L6.48829 13.4688C7.65787 13.8084 8.90583 13.7615 10.0466 13.3351L10.0172 13.2563L9.98776 13.1776C8.88087 13.5914 7.66999 13.6369 6.53516 13.3074L6.51172 13.3881Z" fill="white"/>
</g>
<defs>
<clipPath id="clip0_316_115">
<rect width="16" height="16" fill="white"/>
</clipPath>
</defs>
</svg>
