<svg width="896" height="136" viewBox="0 0 896 136" fill="none" xmlns="http://www.w3.org/2000/svg">
<path d="M96.9123 34.0668C96.9177 34.2377 96.9338 34.4098 96.9632 34.5822L96.9635 34.5836C96.9663 34.6332 97.0793 35.733 96.8943 37.603C96.7047 39.5189 96.2079 42.1855 94.9961 45.2663C92.5846 51.3968 87.2933 59.2987 75.6816 66.22C55.1101 78.4813 51.7479 96.2298 51.2473 103.2C51.1146 103.101 50.9803 103.003 50.8488 102.901C38.3512 93.2042 36.217 74.8409 46.1044 62.0938L61.1556 42.6886C69.8037 31.5385 84.9009 28.2305 96.9123 34.0668ZM104.107 39.0885C114.572 49.1461 115.858 66.0096 106.599 77.9485L91.5478 97.3529C83.488 107.743 69.8297 111.321 58.287 107.039C58.4977 106.517 58.5984 105.945 58.56 105.358L58.5606 105.358C58.5259 104.833 57.4282 85.6228 79.2436 72.619C98.3308 61.2422 103.068 47.0534 104.107 39.0885ZM76.9731 71.668C77.0391 71.6263 77.104 71.5827 77.1704 71.5412L77.2352 71.5014C77.1471 71.5563 77.0604 71.6129 76.9731 71.668Z" fill="#392F2F"/>
<path d="M49.9931 22.7718L52.4306 33.3815" stroke="#392F2F" stroke-width="6" stroke-linecap="round"/>
<path d="M25.8508 30.346L40.641 45.3941" stroke="#392F2F" stroke-width="6" stroke-linecap="round"/>
<path d="M17.3299 53.5417L28.4862 57.5496" stroke="#392F2F" stroke-width="6" stroke-linecap="round"/>
<path d="M193.627 110.508C183.73 110.508 174.916 108.768 167.183 105.289C159.529 101.732 153.498 96.7833 149.09 90.443C144.76 84.0254 142.595 76.4866 142.595 67.8267C142.595 59.1667 144.76 51.6666 149.09 45.3263C153.498 38.986 159.529 34.0761 167.183 30.5967C174.916 27.1173 183.73 25.3775 193.627 25.3775C202.287 25.3775 209.903 26.6147 216.475 29.0889C223.048 31.5632 228.46 34.9653 232.713 39.2953C236.965 43.5479 239.826 48.3418 241.295 53.677L220.535 58.6641C218.911 54.6435 216.746 51.512 214.04 49.2697C211.334 46.95 208.241 45.3263 204.761 44.3985C201.359 43.4706 197.764 43.0067 193.975 43.0067C188.872 43.0067 184.194 43.8959 179.941 45.6743C175.689 47.3753 172.287 49.9656 169.735 53.445C167.261 56.9244 166.024 61.3317 166.024 66.6669V68.9865C166.024 74.2443 167.261 78.6516 169.735 82.2083C172.287 85.6878 175.689 88.3167 179.941 90.0951C184.194 91.7961 188.872 92.6466 193.975 92.6466C197.764 92.6466 201.359 92.1827 204.761 91.2549C208.241 90.327 211.334 88.7419 214.04 86.4996C216.746 84.18 218.911 81.0099 220.535 76.9892L241.295 81.9764C239.826 87.3115 236.965 92.1441 232.713 96.474C228.46 100.727 223.048 104.129 216.475 106.68C209.903 109.232 202.287 110.508 193.627 110.508ZM235.893 109L276.023 26.6533H300.611L340.74 109H316.036L306.99 89.5152H268.136L259.205 109H235.893ZM275.559 73.7417H299.799L287.737 47.7619L275.559 73.7417ZM344.961 109V26.6533H418.029V43.8185H368.157V61.6797H415.477V78.149H368.157V109H344.961ZM425.55 109V26.6533H502.097V43.8185H448.746V59.1281H496.878V75.5974H448.746V91.8348H502.909V109H425.55ZM535.08 109V26.6533H583.56C594.617 26.6533 603.16 29.0503 609.192 33.8442C615.3 38.5607 618.354 45.6356 618.354 55.0687C618.354 64.1926 615.3 71.1128 609.192 75.8294C603.16 80.5459 594.617 82.9042 583.56 82.9042H558.276V109H535.08ZM582.4 43.8185H558.276V66.3189H582.4C586.962 66.3189 590.287 65.4684 592.374 63.7673C594.462 61.9889 595.506 59.4374 595.506 56.1126V54.7208C595.506 51.0094 594.462 48.2645 592.374 46.4861C590.287 44.7077 586.962 43.8185 582.4 43.8185ZM606.671 109L646.8 26.6533H671.388L711.518 109H686.814L677.767 89.5152H638.913L629.983 109H606.671ZM646.336 73.7417H670.576L658.514 47.7619L646.336 73.7417ZM752.848 110.392C745.657 110.392 738.969 109.696 732.783 108.304C726.597 106.835 721.224 104.438 716.662 101.113C712.1 97.7112 708.582 93.1492 706.107 87.4275L726.868 81.2805C728.414 84.064 730.231 86.345 732.319 88.1234C734.484 89.8244 737.306 91.1002 740.786 91.9508C744.265 92.724 748.75 93.1106 754.24 93.1106C760.967 93.1106 766.07 92.376 769.549 90.9069C773.029 89.4378 774.768 87.5435 774.768 85.2238C774.768 83.4455 773.918 81.9377 772.217 80.7006C770.516 79.4634 767.268 78.5743 762.474 78.033L740.09 75.2495C729.729 73.935 721.997 71.3834 716.894 67.5947C711.79 63.806 709.239 58.5482 709.239 51.8213C709.239 45.8675 711.017 40.9577 714.574 37.0916C718.131 33.1483 723.157 30.2101 729.652 28.2771C736.224 26.2667 743.879 25.2615 752.616 25.2615C758.956 25.2615 764.987 25.9188 770.709 27.2332C776.508 28.5477 781.65 30.79 786.134 33.9601C790.696 37.1303 794.292 41.5762 796.921 47.298L777.088 53.445C774.768 49.115 771.482 46.2155 767.23 44.7464C763.054 43.2773 757.564 42.5428 750.76 42.5428C745.038 42.5428 740.438 43.1613 736.958 44.3985C733.556 45.5583 731.855 47.2593 731.855 49.5016C731.855 51.4346 732.783 52.9811 734.639 54.1409C736.572 55.3007 739.703 56.1512 744.033 56.6925L768.621 59.708C778.673 60.9451 786.018 63.5354 790.658 67.4787C795.297 71.4221 797.617 76.6412 797.617 83.1362C797.617 89.1672 795.761 94.2317 792.049 98.3297C788.338 102.35 783.119 105.366 776.392 107.376C769.665 109.387 761.817 110.392 752.848 110.392ZM847.255 110.392C840.064 110.392 833.376 109.696 827.19 108.304C821.004 106.835 815.631 104.438 811.069 101.113C806.507 97.7112 802.989 93.1492 800.514 87.4275L821.275 81.2805C822.821 84.064 824.638 86.345 826.726 88.1234C828.891 89.8244 831.713 91.1002 835.193 91.9508C838.672 92.724 843.157 93.1106 848.647 93.1106C855.373 93.1106 860.477 92.376 863.956 90.9069C867.435 89.4378 869.175 87.5435 869.175 85.2238C869.175 83.4455 868.325 81.9377 866.624 80.7006C864.923 79.4634 861.675 78.5743 856.881 78.033L834.497 75.2495C824.136 73.935 816.404 71.3834 811.301 67.5947C806.197 63.806 803.646 58.5482 803.646 51.8213C803.646 45.8675 805.424 40.9577 808.981 37.0916C812.538 33.1483 817.564 30.2101 824.059 28.2771C830.631 26.2667 838.286 25.2615 847.023 25.2615C853.363 25.2615 859.394 25.9188 865.116 27.2332C870.915 28.5477 876.057 30.79 880.541 33.9601C885.103 37.1303 888.699 41.5762 891.328 47.298L871.495 53.445C869.175 49.115 865.889 46.2155 861.636 44.7464C857.461 43.2773 851.971 42.5428 845.167 42.5428C839.445 42.5428 834.845 43.1613 831.365 44.3985C827.963 45.5583 826.262 47.2593 826.262 49.5016C826.262 51.4346 827.19 52.9811 829.046 54.1409C830.979 55.3007 834.11 56.1512 838.44 56.6925L863.028 59.708C873.08 60.9451 880.425 63.5354 885.065 67.4787C889.704 71.4221 892.024 76.6412 892.024 83.1362C892.024 89.1672 890.168 94.2317 886.456 98.3297C882.745 102.35 877.526 105.366 870.799 107.376C864.072 109.387 856.224 110.392 847.255 110.392Z" fill="#392F2F"/>
</svg>
